<svg width="218" height="190" viewBox="0 0 218 190" fill="none" xmlns="http://www.w3.org/2000/svg">
<rect width="218" height="190" rx="15" fill="#01B5D8"/>
<mask id="mask0_803_11956" style="mask-type:alpha" maskUnits="userSpaceOnUse" x="0" y="0" width="218" height="190">
<rect width="218" height="190" rx="15" fill="#4FD1C5"/>
</mask>
<g mask="url(#mask0_803_11956)">
<g opacity="0.2">
<path d="M397.5 189.72C397.5 299.54 318.09 388.467 220.25 388.467C122.41 388.467 43 299.54 43 189.72C43 79.8991 122.41 -9.02808 220.25 -9.02808C318.09 -9.02808 397.5 79.8991 397.5 189.72Z" stroke="white"/>
<path d="M373.468 189.72C373.468 284.663 304.818 361.53 220.25 361.53C135.682 361.53 67.0312 284.663 67.0312 189.72C67.0312 94.7766 135.682 17.9099 220.25 17.9099C304.818 17.9099 373.468 94.7766 373.468 189.72Z" stroke="white"/>
<path d="M346.123 189.72C346.123 267.733 289.716 330.876 220.25 330.876C150.785 330.876 94.3779 267.733 94.3779 189.72C94.3779 111.706 150.785 48.5634 220.25 48.5634C289.716 48.5634 346.123 111.706 346.123 189.72Z" stroke="white"/>
<path d="M318.776 189.72C318.776 250.804 274.612 300.223 220.25 300.223C165.887 300.223 121.724 250.804 121.724 189.72C121.724 128.636 165.887 79.2169 220.25 79.2169C274.612 79.2169 318.776 128.636 318.776 189.72Z" stroke="white"/>
<path d="M292.259 189.72C292.259 234.388 259.967 270.498 220.25 270.498C180.533 270.498 148.241 234.388 148.241 189.72C148.241 145.052 180.533 108.942 220.25 108.942C259.967 108.942 292.259 145.052 292.259 189.72Z" stroke="white"/>
<path d="M268.227 189.72C268.227 219.51 246.695 243.56 220.25 243.56C193.805 243.56 172.272 219.51 172.272 189.72C172.272 159.929 193.805 135.879 220.25 135.879C246.695 135.879 268.227 159.929 268.227 189.72Z" stroke="white"/>
<path d="M249 189.72C249 207.607 236.076 222.007 220.25 222.007C204.424 222.007 191.5 207.607 191.5 189.72C191.5 171.833 204.424 157.432 220.25 157.432C236.076 157.432 249 171.833 249 189.72Z" stroke="white"/>
</g>
</g>
</svg>
