<svg width="20" height="21" viewBox="0 0 20 21" fill="none" xmlns="http://www.w3.org/2000/svg">
<path d="M12.5005 19.4583H7.50053C6.40053 19.4583 5.48386 19.35 4.70886 19.1166C4.42553 19.0333 4.24219 18.7583 4.25886 18.4666C4.46719 15.975 6.99219 14.0166 10.0005 14.0166C13.0089 14.0166 15.5255 15.9666 15.7422 18.4666C15.7672 18.7666 15.5839 19.0333 15.2922 19.1166C14.5172 19.35 13.6005 19.4583 12.5005 19.4583ZM5.60053 18.05C6.15053 18.1583 6.77553 18.2083 7.50053 18.2083H12.5005C13.2255 18.2083 13.8505 18.1583 14.4005 18.05C13.9589 16.45 12.1339 15.2666 10.0005 15.2666C7.86719 15.2666 6.0422 16.45 5.60053 18.05Z" fill="#A1AEBF"/>
<path d="M12.5003 2.16675H7.50033C3.33366 2.16675 1.66699 3.83341 1.66699 8.00008V13.0001C1.66699 16.1501 2.61699 17.8751 4.88366 18.5167C5.06699 16.3501 7.29199 14.6417 10.0003 14.6417C12.7087 14.6417 14.9337 16.3501 15.117 18.5167C17.3837 17.8751 18.3337 16.1501 18.3337 13.0001V8.00008C18.3337 3.83341 16.667 2.16675 12.5003 2.16675ZM10.0003 12.3084C8.35033 12.3084 7.01699 10.9668 7.01699 9.31676C7.01699 7.66676 8.35033 6.33341 10.0003 6.33341C11.6503 6.33341 12.9837 7.66676 12.9837 9.31676C12.9837 10.9668 11.6503 12.3084 10.0003 12.3084Z" stroke="#A1AEBF" stroke-width="1.5" stroke-linecap="round" stroke-linejoin="round"/>
<path d="M9.99994 12.9332C8.00827 12.9332 6.3916 11.3083 6.3916 9.3166C6.3916 7.32493 8.00827 5.70825 9.99994 5.70825C11.9916 5.70825 13.6083 7.32493 13.6083 9.3166C13.6083 11.3083 11.9916 12.9332 9.99994 12.9332ZM9.99994 6.95825C8.69994 6.95825 7.6416 8.0166 7.6416 9.3166C7.6416 10.6249 8.69994 11.6832 9.99994 11.6832C11.2999 11.6832 12.3583 10.6249 12.3583 9.3166C12.3583 8.0166 11.2999 6.95825 9.99994 6.95825Z" fill="#A1AEBF"/>
</svg>
