<svg width="20" height="21" viewBox="0 0 20 21" fill="none" xmlns="http://www.w3.org/2000/svg">
<path d="M10.0003 16.9584C7.81699 16.9584 6.04199 15.1834 6.04199 13.0001C6.04199 10.8167 7.81699 9.04175 10.0003 9.04175C12.1837 9.04175 13.9587 10.8167 13.9587 13.0001C13.9587 15.1834 12.1837 16.9584 10.0003 16.9584ZM10.0003 10.2917C8.50866 10.2917 7.29199 11.5084 7.29199 13.0001C7.29199 14.4917 8.50866 15.7084 10.0003 15.7084C11.492 15.7084 12.7087 14.4917 12.7087 13.0001C12.7087 11.5084 11.492 10.2917 10.0003 10.2917Z" fill="#A1AEBF"/>
<path d="M9.5334 14.2832C9.26673 14.2832 9.00007 14.1832 8.80007 13.9749L8.2584 13.4332C8.01673 13.1916 8.01673 12.7916 8.2584 12.5499C8.50007 12.3082 8.90007 12.3082 9.14173 12.5499L9.54173 12.9499L10.8834 11.7166C11.1334 11.4832 11.5334 11.4999 11.7667 11.7499C12.0001 11.9999 11.9834 12.3999 11.7334 12.6332L10.2501 13.9999C10.0417 14.1916 9.7834 14.2832 9.5334 14.2832Z" fill="#A1AEBF"/>
<path d="M12.4998 19.4584H7.49985C3.64985 19.4584 2.93318 17.6667 2.74985 15.9251L2.12485 10.9334C2.03318 10.0334 1.99985 8.74175 2.87485 7.77508C3.62485 6.94175 4.86652 6.54175 6.66652 6.54175H13.3332C15.1415 6.54175 16.3832 6.95008 17.1248 7.77508C17.9915 8.74175 17.9665 10.0334 17.8748 10.9167L17.2498 15.9251C17.0665 17.6667 16.3498 19.4584 12.4998 19.4584ZM6.66652 7.79175C5.25818 7.79175 4.29152 8.06675 3.79985 8.61675C3.39152 9.06675 3.25818 9.75842 3.36652 10.7917L3.99152 15.7834C4.13318 17.1167 4.49985 18.2167 7.49985 18.2167H12.4998C15.4998 18.2167 15.8665 17.1251 16.0082 15.8001L16.6332 10.7917C16.7415 9.77508 16.6082 9.08342 16.1998 8.62508C15.7082 8.06675 14.7415 7.79175 13.3332 7.79175H6.66652Z" fill="#A1AEBF"/>
<path d="M13.75 7.69159C13.4083 7.69159 13.125 7.40826 13.125 7.06659V5.91659C13.125 5.04159 12.75 4.19159 12.1 3.59992C11.4417 2.99992 10.5833 2.72492 9.69167 2.80826C8.19167 2.94992 6.875 4.48326 6.875 6.08326V6.89159C6.875 7.23326 6.59167 7.51659 6.25 7.51659C5.90833 7.51659 5.625 7.23326 5.625 6.89159V6.07492C5.625 3.83326 7.43333 1.76659 9.575 1.55826C10.825 1.44159 12.025 1.83326 12.9417 2.67492C13.85 3.49992 14.375 4.68326 14.375 5.91659V7.06659C14.375 7.40826 14.0917 7.69159 13.75 7.69159Z" fill="#A1AEBF"/>
</svg>
