<svg width="20" height="20" viewBox="0 0 20 20" fill="none" xmlns="http://www.w3.org/2000/svg">
<path d="M14.8253 18.9584H5.17533C2.89199 18.9584 1.04199 17.1001 1.04199 14.8167V8.64173C1.04199 7.50839 1.74199 6.08339 2.64199 5.38339L7.13366 1.88339C8.48366 0.833393 10.642 0.783393 12.042 1.76673L17.192 5.37506C18.1837 6.06673 18.9587 7.55006 18.9587 8.75839V14.8251C18.9587 17.1001 17.1087 18.9584 14.8253 18.9584ZM7.90033 2.86673L3.40866 6.36673C2.81699 6.83339 2.29199 7.89173 2.29199 8.64173V14.8167C2.29199 16.4084 3.58366 17.7084 5.17533 17.7084H14.8253C16.417 17.7084 17.7087 16.4167 17.7087 14.8251V8.75839C17.7087 7.95839 17.1337 6.85006 16.4753 6.40006L11.3253 2.79173C10.3753 2.12506 8.80866 2.15839 7.90033 2.86673Z" fill="#A1AEBF"/>
<path d="M10 15.625C9.65833 15.625 9.375 15.3417 9.375 15V12.5C9.375 12.1583 9.65833 11.875 10 11.875C10.3417 11.875 10.625 12.1583 10.625 12.5V15C10.625 15.3417 10.3417 15.625 10 15.625Z" fill="#A1AEBF"/>
</svg>
